<svg xmlns="http://www.w3.org/2000/svg" xmlns:xlink="http://www.w3.org/1999/xlink" width="250" zoomAndPan="magnify" viewBox="0 0 187.5 74.999997" height="100" preserveAspectRatio="xMidYMid meet" version="1.0"><defs><g/><clipPath id="1802ab2762"><path d="M 0 0.101562 L 187 0.101562 L 187 74.898438 L 0 74.898438 Z M 0 0.101562 " clip-rule="nonzero"/></clipPath></defs><g clip-path="url(#1802ab2762)"><path fill="#ffffff" d="M 0 0.101562 L 187 0.101562 L 187 74.898438 L 0 74.898438 Z M 0 0.101562 " fill-opacity="1" fill-rule="nonzero"/><path fill="#ffffff" d="M 0 0.101562 L 187 0.101562 L 187 74.898438 L 0 74.898438 Z M 0 0.101562 " fill-opacity="1" fill-rule="nonzero"/></g><g fill="#000000" fill-opacity="1"><g transform="translate(0.383539, 61.013611)"><g><path d="M 35.34375 -5.90625 L 36.46875 -5.96875 C 37.28125 -5.96875 37.789062 -5.601562 38 -4.875 C 38.101562 -4.445312 38.210938 -4.039062 38.328125 -3.65625 C 38.441406 -3.28125 38.5 -2.851562 38.5 -2.375 C 38.5 -1.90625 38.359375 -1.503906 38.078125 -1.171875 C 37.796875 -0.835938 37.429688 -0.550781 36.984375 -0.3125 C 34.035156 1.289062 30.828125 0.632812 27.359375 -2.28125 C 24.515625 -4.644531 21.441406 -8.554688 18.140625 -14.015625 L 14.234375 -20.703125 C 14.703125 -21.609375 15.234375 -22.582031 15.828125 -23.625 C 18.347656 -27.832031 20.367188 -30.953125 21.890625 -32.984375 C 24.992188 -37.097656 27.546875 -40.019531 29.546875 -41.75 C 30.398438 -42.5 31.070312 -42.875 31.5625 -42.875 C 32.4375 -42.875 33.234375 -42.582031 33.953125 -42 L 34.875 -41.3125 C 36.195312 -40.320312 36.53125 -39.410156 35.875 -38.578125 C 35.539062 -38.128906 35.125 -37.703125 34.625 -37.296875 C 34.125 -36.890625 33.648438 -36.460938 33.203125 -36.015625 C 31.492188 -34.265625 30.175781 -32.875 29.25 -31.84375 C 27.019531 -29.238281 25.46875 -27.390625 24.59375 -26.296875 L 22.390625 -23.390625 C 21.773438 -22.535156 21.265625 -21.773438 20.859375 -21.109375 L 23.453125 -17.265625 L 25.265625 -14.703125 C 29.128906 -9.359375 32.128906 -6.460938 34.265625 -6.015625 C 34.617188 -5.941406 34.976562 -5.90625 35.34375 -5.90625 Z M 6.015625 -40.921875 C 6.015625 -41.398438 6.164062 -41.816406 6.46875 -42.171875 C 6.78125 -42.523438 7.148438 -42.703125 7.578125 -42.703125 L 11.46875 -42.703125 C 11.894531 -42.703125 12.257812 -42.523438 12.5625 -42.171875 C 12.863281 -41.816406 13.015625 -41.398438 13.015625 -40.921875 L 13.015625 -1.78125 C 13.015625 -1.300781 12.859375 -0.882812 12.546875 -0.53125 C 12.242188 -0.175781 11.878906 0 11.453125 0 L 7.546875 0 C 7.117188 0 6.753906 -0.175781 6.453125 -0.53125 C 6.160156 -0.882812 6.015625 -1.300781 6.015625 -1.78125 Z M 6.015625 -40.921875 "/></g></g></g><g fill="#000000" fill-opacity="1"><g transform="translate(38.373627, 61.013611)"><g><path d="M 3.34375 -15.828125 C 3.34375 -18.234375 3.742188 -20.441406 4.546875 -22.453125 C 5.359375 -24.472656 6.472656 -26.195312 7.890625 -27.625 C 10.835938 -30.613281 14.554688 -32.109375 19.046875 -32.109375 C 24.078125 -32.109375 27.976562 -30.613281 30.75 -27.625 C 33.425781 -24.75 34.765625 -20.796875 34.765625 -15.765625 C 34.765625 -10.898438 33.25 -6.925781 30.21875 -3.84375 C 27.269531 -0.8125 23.546875 0.703125 19.046875 0.703125 C 14.316406 0.703125 10.507812 -0.847656 7.625 -3.953125 C 4.769531 -6.984375 3.34375 -10.941406 3.34375 -15.828125 Z M 12.296875 -22.90625 C 11.597656 -21.875 11.09375 -20.703125 10.78125 -19.390625 C 10.46875 -18.085938 10.3125 -16.757812 10.3125 -15.40625 C 10.3125 -14.0625 10.488281 -12.769531 10.84375 -11.53125 C 11.207031 -10.300781 11.753906 -9.207031 12.484375 -8.25 C 14.078125 -6.125 16.304688 -5.0625 19.171875 -5.0625 C 22.078125 -5.0625 24.285156 -6.101562 25.796875 -8.1875 C 27.128906 -10.007812 27.796875 -12.488281 27.796875 -15.625 C 27.796875 -20.320312 26.253906 -23.5625 23.171875 -25.34375 C 22.035156 -26 20.664062 -26.328125 19.0625 -26.328125 C 17.457031 -26.328125 16.101562 -26.015625 15 -25.390625 C 13.894531 -24.765625 12.992188 -23.9375 12.296875 -22.90625 Z M 12.296875 -22.90625 "/></g></g></g><g fill="#000000" fill-opacity="1"><g transform="translate(76.419419, 61.013611)"><g><path d="M 22.140625 -27.1875 C 22.140625 -26.144531 21.554688 -25.625 20.390625 -25.625 L 12.53125 -25.625 L 12.53125 -8.140625 C 12.53125 -6.242188 13.46875 -5.296875 15.34375 -5.296875 C 16.53125 -5.296875 18.082031 -5.890625 20 -7.078125 C 20.375 -7.316406 20.773438 -7.4375 21.203125 -7.4375 C 21.640625 -7.4375 21.988281 -7.128906 22.25 -6.515625 L 22.890625 -5.0625 C 23.140625 -4.507812 23.265625 -4.035156 23.265625 -3.640625 C 23.265625 -3.253906 22.96875 -2.804688 22.375 -2.296875 C 21.789062 -1.785156 21.046875 -1.328125 20.140625 -0.921875 C 18.078125 0.00390625 16.207031 0.46875 14.53125 0.46875 C 12.863281 0.46875 11.539062 0.296875 10.5625 -0.046875 C 9.59375 -0.390625 8.765625 -0.90625 8.078125 -1.59375 C 6.585938 -3.039062 5.84375 -5.128906 5.84375 -7.859375 L 5.84375 -25.625 L 3.515625 -25.625 C 2.335938 -25.625 1.75 -26.15625 1.75 -27.21875 L 1.75 -28.796875 C 1.75 -29.222656 1.859375 -29.554688 2.078125 -29.796875 C 2.304688 -30.046875 2.742188 -30.234375 3.390625 -30.359375 L 6.1875 -31.171875 L 7.25 -37.71875 C 7.445312 -38.9375 7.945312 -39.546875 8.75 -39.546875 L 11.0625 -39.546875 C 11.488281 -39.546875 11.835938 -39.375 12.109375 -39.03125 C 12.390625 -38.6875 12.53125 -38.25 12.53125 -37.71875 L 12.53125 -31.421875 L 20.390625 -31.421875 C 21.554688 -31.421875 22.140625 -30.910156 22.140625 -29.890625 Z M 22.140625 -27.1875 "/></g></g></g><g fill="#000000" fill-opacity="1"><g transform="translate(100.121455, 61.013611)"><g><path d="M 5.96875 -47.625 C 5.96875 -48.132812 6.109375 -48.554688 6.390625 -48.890625 C 6.679688 -49.222656 7.03125 -49.390625 7.4375 -49.390625 L 11.25 -49.390625 C 11.675781 -49.390625 12.03125 -49.222656 12.3125 -48.890625 C 12.59375 -48.554688 12.734375 -48.132812 12.734375 -47.625 L 12.734375 -26.546875 C 14.328125 -29.253906 16.675781 -30.988281 19.78125 -31.75 C 20.757812 -31.988281 22.003906 -32.109375 23.515625 -32.109375 C 25.035156 -32.109375 26.453125 -31.78125 27.765625 -31.125 C 29.085938 -30.46875 30.140625 -29.5625 30.921875 -28.40625 C 32.316406 -26.3125 33.015625 -23.222656 33.015625 -19.140625 L 33.015625 -1.84375 C 33.015625 -1.28125 32.84375 -0.832031 32.5 -0.5 C 32.164062 -0.164062 31.675781 0 31.03125 0 L 28.296875 0 C 27.585938 0 27.066406 -0.175781 26.734375 -0.53125 C 26.398438 -0.882812 26.234375 -1.320312 26.234375 -1.84375 L 26.234375 -19.171875 C 26.234375 -23.921875 24.488281 -26.296875 21 -26.296875 C 19.050781 -26.296875 17.210938 -25.441406 15.484375 -23.734375 C 13.648438 -21.878906 12.734375 -19.742188 12.734375 -17.328125 L 12.734375 -1.84375 C 12.734375 -1.320312 12.570312 -0.882812 12.25 -0.53125 C 11.9375 -0.175781 11.425781 0 10.71875 0 L 7.6875 0 C 7.144531 0 6.722656 -0.175781 6.421875 -0.53125 C 6.117188 -0.882812 5.96875 -1.320312 5.96875 -1.84375 Z M 5.96875 -47.625 "/></g></g></g><g fill="#0057ff" fill-opacity="1"><g transform="translate(138.116807, 61.013611)"><g><path d="M 30.390625 -1.46875 C 30.390625 -0.488281 29.90625 0 28.9375 0 L 26.234375 0 C 25.515625 0 25.078125 -0.140625 24.921875 -0.421875 C 24.773438 -0.710938 24.691406 -0.972656 24.671875 -1.203125 C 24.660156 -1.441406 24.625 -1.726562 24.5625 -2.0625 C 24.457031 -2.96875 24.300781 -3.953125 24.09375 -5.015625 C 22.644531 -2.359375 20.367188 -0.601562 17.265625 0.25 C 16.171875 0.550781 14.960938 0.703125 13.640625 0.703125 C 12.328125 0.703125 11.007812 0.484375 9.6875 0.046875 C 8.375 -0.390625 7.207031 -1.035156 6.1875 -1.890625 C 3.882812 -3.828125 2.734375 -6.363281 2.734375 -9.5 C 2.734375 -12.9375 3.992188 -15.5625 6.515625 -17.375 C 8.597656 -18.84375 11.269531 -19.578125 14.53125 -19.578125 C 17.800781 -19.578125 20.570312 -18.625 22.84375 -16.71875 C 22.894531 -17.34375 22.921875 -18.128906 22.921875 -19.078125 C 22.921875 -20.023438 22.734375 -20.972656 22.359375 -21.921875 C 21.992188 -22.867188 21.46875 -23.660156 20.78125 -24.296875 C 19.363281 -25.535156 17.394531 -26.15625 14.875 -26.15625 C 12.601562 -26.15625 10.300781 -25.535156 7.96875 -24.296875 C 7.519531 -24.046875 7.128906 -23.921875 6.796875 -23.921875 C 6.296875 -23.921875 5.8125 -24.414062 5.34375 -25.40625 C 4.84375 -26.40625 4.59375 -27.128906 4.59375 -27.578125 C 4.59375 -28.390625 5.207031 -29.175781 6.4375 -29.9375 C 8.769531 -31.382812 11.898438 -32.109375 15.828125 -32.109375 C 19.390625 -32.109375 22.335938 -31.132812 24.671875 -29.1875 C 27.441406 -26.851562 28.828125 -23.550781 28.828125 -19.28125 C 28.828125 -17.382812 28.519531 -14.992188 27.90625 -12.109375 C 29.488281 -7.617188 30.316406 -4.070312 30.390625 -1.46875 Z M 11.71875 -13.296875 C 10.957031 -12.734375 10.414062 -12.171875 10.09375 -11.609375 C 9.769531 -11.054688 9.609375 -10.40625 9.609375 -9.65625 C 9.609375 -8.90625 9.742188 -8.234375 10.015625 -7.640625 C 10.285156 -7.054688 10.660156 -6.570312 11.140625 -6.1875 C 12.160156 -5.382812 13.304688 -4.984375 14.578125 -4.984375 C 15.847656 -4.984375 16.890625 -5.128906 17.703125 -5.421875 C 18.523438 -5.722656 19.234375 -6.109375 19.828125 -6.578125 C 21.109375 -7.578125 21.75 -8.632812 21.75 -9.75 C 21.644531 -11.144531 20.875 -12.238281 19.4375 -13.03125 C 18.15625 -13.78125 16.644531 -14.15625 14.90625 -14.15625 C 13.550781 -14.15625 12.488281 -13.867188 11.71875 -13.296875 Z M 11.71875 -13.296875 "/></g></g></g><g fill="#0057ff" fill-opacity="1"><g transform="translate(171.399921, 61.013611)"><g><path d="M 2.390625 -4.203125 C 2.390625 -5.523438 2.851562 -6.664062 3.78125 -7.625 C 4.71875 -8.570312 5.851562 -9.046875 7.1875 -9.046875 C 8.507812 -9.046875 9.625 -8.570312 10.53125 -7.625 C 11.457031 -6.664062 11.921875 -5.523438 11.921875 -4.203125 C 11.921875 -2.867188 11.457031 -1.71875 10.53125 -0.75 C 9.601562 0.21875 8.488281 0.703125 7.1875 0.703125 C 5.863281 0.703125 4.726562 0.21875 3.78125 -0.75 C 2.851562 -1.71875 2.390625 -2.867188 2.390625 -4.203125 Z M 2.390625 -4.203125 "/></g></g></g></svg>